<svg xmlns="http://www.w3.org/2000/svg" xmlns:cc="http://web.resource.org/cc/" xmlns:svg="http://www.w3.org/2000/svg" xmlns:xlink="http://www.w3.org/1999/xlink" id="svg2" x="0" y="0" version="1.1" viewBox="-285 382 77.1 30" style="enable-background:new -285 382 77.1 30" xml:space="preserve"><style type="text/css">.st0{fill:rgb(18 147 216/30%)}</style><path d="M-213.5,386.6c5.1,5.7,1.6,15.7-2.7,19.5c-3.6,3.3-9.6,6-10.2,5c-0.9-1.5,2.6-2.5,5.3-4.9 c3.3-3.6,4.4-5.2-0.2-7.2c-4.9-2.2-5-4.4-5.2-7.2C-226.8,384.9-218.5,381.6-213.5,386.6z" class="st0" transform="translate(-30 0)"/><path d="M-232.7,386.5c5.1,5.7,1.6,15.7-2.7,19.5c-3.6,3.3-9.6,6-10.2,5c-0.9-1.5,2.6-2.5,5.3-4.9 c3.3-3.6,4.4-5.2-0.2-7.2c-4.9-2.2-5-4.4-5.2-7.2C-245.9,384.8-237.7,381.5-232.7,386.5z" class="st0" transform="translate(-30 0)"/></svg>